<?xml version="1.0" encoding="utf-8"?>
<!-- Generator: Adobe Illustrator 25.0.0, SVG Export Plug-In . SVG Version: 6.00 Build 0)  -->
<svg version="1.1" id="Capa_1" xmlns="http://www.w3.org/2000/svg" xmlns:xlink="http://www.w3.org/1999/xlink" x="0px" y="0px"
	 viewBox="0 0 2000 2000" style="enable-background:new 0 0 2000 2000;" xml:space="preserve">
<style type="text/css">
	.st0{stroke:#FFFFFF;stroke-miterlimit:10;}
</style>
<polygon class="st0" points="545.18,982.9 545.18,1160.17 1022.45,739.72 1504.27,1160.17 1504.27,980.63 1024.73,587.44 "/>
<path d="M1026.73,782.9l-365.91,329.55v288.64c0,0,43.18,68.18,95.45,61.36c52.27-6.82,143.18,0.48,143.18,0.48v-275.48
	c0,0-15.91-27.27,56.82-27.27s72.73,0,72.73,0L1026.73,782.9z"/>
<path d="M1027.27,782.9l365.91,329.55v288.64c0,0-43.18,68.18-95.45,61.36c-52.27-6.82-143.18,0.48-143.18,0.48v-275.48
	c0,0,15.91-27.27-56.82-27.27c-72.73,0-72.73,0-72.73,0L1027.27,782.9z"/>
<path d="M1331.65,839.09V507.9c0,0-9.19-97.73-184.19-88.64l-302.55-0.6c0,0-102,0.6-122.45,111.96v195.45l88.64-2.27l-2.27-179.55
	c0,0,4.55-43.18,79.55-38.64l306.82-2.27c0,0,52.27-11.36,50,59.09c-2.27,70.45-1.22,204.75-1.22,204.75"/>
<path d="M1066.76,1243.06c0,21.93-17.78,39.7-39.7,39.7c-9.38,0-17.99-3.25-24.79-8.68c-9.09-7.28-14.92-18.47-14.92-31.02
	c0-21.93,17.78-39.7,39.7-39.7S1066.76,1221.13,1066.76,1243.06z"/>
<polyline points="1071.7,1459.61 1048.59,1270.76 1010.2,1279.45 1013.8,1459.61 "/>
<polyline points="979.45,1459.61 1002.56,1270.76 1040.95,1279.45 1037.35,1459.61 "/>
</svg>
